<!DOCTYPE svg PUBLIC "-//W3C//DTD SVG 1.1//EN" "http://www.w3.org/Graphics/SVG/1.1/DTD/svg11.dtd">
<!-- Uploaded to: SVG Repo, www.svgrepo.com, Transformed by: SVG Repo Mixer Tools -->
<svg fill="#ffffff" width="256px" height="256px" viewBox="0 0 32 32" version="1.1" xmlns="http://www.w3.org/2000/svg">
<g id="SVGRepo_bgCarrier" stroke-width="0"/>
<g id="SVGRepo_tracerCarrier" stroke-linecap="round" stroke-linejoin="round"/>
<g id="SVGRepo_iconCarrier"> <title>scikitlearn</title> <path d="M18.009 18.494c-0.182 0-0.356 0.137-0.521 0.416-0.159 0.287-0.252 0.629-0.252 0.993 0 0.031 0.001 0.063 0.002 0.094l-0-0.004q1.061-0.298 1.061-1.101c0-0.265-0.096-0.397-0.29-0.397zM21.568 18.486q-0.414 0-0.786 0.704c-0.217 0.373-0.352 0.817-0.37 1.292l-0 0.005c-0 0.008-0.001 0.018-0.001 0.027 0 0.126 0.042 0.243 0.112 0.336l-0.001-0.001c0.063 0.085 0.162 0.139 0.275 0.139 0.001 0 0.003 0 0.004-0h-0c0.276 0 0.537-0.235 0.781-0.706 0.216-0.375 0.35-0.822 0.367-1.298l0-0.005c0.001-0.010 0.001-0.021 0.001-0.033 0-0.123-0.039-0.238-0.106-0.331l0.001 0.002c-0.062-0.080-0.158-0.13-0.266-0.13-0.004 0-0.008 0-0.012 0l0.001-0zM15.743 16.24c-0.1 0-0.25 0.255-0.445 0.764-0.218 0.591-0.416 1.308-0.559 2.045l-0.015 0.091c0.34-0.376 0.626-0.809 0.841-1.281l0.013-0.031c0.186-0.363 0.304-0.79 0.327-1.241l0-0.007c0-0.007 0-0.015 0-0.023 0-0.081-0.017-0.157-0.047-0.227l0.001 0.004q-0.047-0.094-0.116-0.094zM22.053 15.468h0.207v1.307h-0.207zM20.25 15.468h0.207v1.307h-0.209zM19.497 15.43c0.003-0 0.006-0 0.010-0 0.088 0 0.172 0.020 0.246 0.055l-0.003-0.002c0.111 0.052 0.195 0.147 0.233 0.262l0.001 0.003c0.014 0.046 0.025 0.1 0.029 0.155l0 0.002h-0.21c-0.006-0.083-0.042-0.156-0.097-0.21l-0-0c-0.053-0.047-0.123-0.075-0.2-0.075-0.005 0-0.009 0-0.013 0l0.001-0c-0.002-0-0.005-0-0.007-0-0.070 0-0.135 0.024-0.187 0.063l0.001-0.001c-0.057 0.046-0.101 0.107-0.124 0.177l-0.001 0.003c-0.027 0.078-0.043 0.168-0.043 0.262 0 0.006 0 0.012 0 0.019l-0-0.001c-0 0.006-0 0.012-0 0.019 0 0.089 0.016 0.175 0.046 0.254l-0.002-0.005c0.026 0.069 0.070 0.126 0.125 0.168l0.001 0.001c0.052 0.038 0.118 0.060 0.189 0.060 0.003 0 0.005-0 0.008-0h-0c0.177 0 0.284-0.105 0.32-0.315h0.209c-0.007 0.102-0.036 0.196-0.083 0.278l0.002-0.003c-0.043 0.074-0.105 0.133-0.18 0.171l-0.002 0.001c-0.075 0.038-0.163 0.060-0.257 0.060-0.005 0-0.009-0-0.013-0h0.001c-0.004 0-0.009 0-0.014 0-0.108 0-0.21-0.031-0.296-0.084l0.002 0.001c-0.088-0.059-0.157-0.141-0.2-0.236l-0.001-0.004c-0.045-0.102-0.071-0.222-0.071-0.347 0-0.007 0-0.013 0-0.020l-0 0.001c-0-0.004-0-0.010-0-0.015 0-0.099 0.015-0.194 0.042-0.283l-0.002 0.007c0.026-0.087 0.067-0.163 0.12-0.229l-0.001 0.001c0.050-0.062 0.112-0.112 0.184-0.145l0.003-0.001c0.068-0.032 0.148-0.050 0.233-0.050 0.002 0 0.004 0 0.006 0h-0zM18.203 15.43c0.006-0 0.013-0 0.020-0 0.086 0 0.168 0.018 0.243 0.049l-0.004-0.002c0.069 0.028 0.124 0.076 0.162 0.136l0.001 0.001c0.035 0.059 0.056 0.13 0.056 0.206 0 0.004-0 0.007-0 0.011v-0.001h-0.22c-0.008-0.139-0.094-0.209-0.26-0.209-0.006-0-0.013-0.001-0.020-0.001-0.068 0-0.132 0.019-0.186 0.053l0.002-0.001c-0.046 0.030-0.075 0.082-0.075 0.14 0 0.002 0 0.005 0 0.007v-0c0 0 0 0.001 0 0.001 0 0.045 0.022 0.085 0.056 0.109l0 0c0.053 0.036 0.116 0.063 0.185 0.075l0.003 0 0.2 0.049c0.108 0.019 0.203 0.066 0.281 0.132l-0.001-0.001c0.054 0.056 0.088 0.132 0.088 0.216 0 0.006-0 0.011-0 0.017l0-0.001c0 0.002 0 0.005 0 0.008 0 0.079-0.024 0.152-0.066 0.212l0.001-0.001c-0.047 0.065-0.112 0.115-0.187 0.144l-0.003 0.001c-0.080 0.032-0.172 0.051-0.269 0.051-0.005 0-0.009-0-0.014-0h0.001c-0.012 0.001-0.027 0.001-0.041 0.001-0.13 0-0.25-0.042-0.347-0.113l0.002 0.001c-0.084-0.080-0.137-0.193-0.137-0.318 0-0.006 0-0.013 0-0.019l-0 0.001h0.22c0.003 0.039 0.011 0.074 0.022 0.108l-0.001-0.003c0.010 0.026 0.025 0.049 0.043 0.068l-0-0c0.061 0.051 0.14 0.082 0.227 0.082 0.010 0 0.020-0 0.030-0.001l-0.001 0c0.006 0 0.013 0 0.019 0 0.075 0 0.144-0.021 0.204-0.058l-0.002 0.001c0.051-0.031 0.084-0.086 0.084-0.149 0-0 0-0 0-0v0c0-0.002 0-0.003 0-0.005 0-0.043-0.018-0.081-0.047-0.107l-0-0c-0.043-0.034-0.096-0.058-0.153-0.068l-0.002-0-0.195-0.047c-0.079-0.019-0.145-0.041-0.209-0.066l0.011 0.004c-0.047-0.020-0.087-0.046-0.123-0.077l0 0c-0.031-0.028-0.056-0.063-0.072-0.102l-0.001-0.002c-0.013-0.037-0.020-0.080-0.020-0.125 0-0.003 0-0.007 0-0.010v0.001c-0-0.004-0-0.008-0-0.012 0-0.113 0.053-0.213 0.136-0.278l0.001-0.001c0.092-0.068 0.208-0.109 0.333-0.109 0.010 0 0.020 0 0.031 0.001l-0.001-0zM22.654 15.108h0.207v0.36h0.215v0.169h-0.215v0.896c-0.002 0.008-0.003 0.016-0.003 0.025 0 0.053 0.043 0.096 0.096 0.096 0.009 0 0.017-0.001 0.025-0.003l-0.001 0c0.004 0 0.008 0 0.013 0 0.030 0 0.059-0.005 0.087-0.013l-0.002 0.001v0.176c-0.051 0.010-0.109 0.016-0.169 0.017h-0.001c-0.006 0-0.012 0.001-0.019 0.001-0.063 0-0.122-0.020-0.169-0.055l0.001 0.001c-0.040-0.035-0.065-0.085-0.065-0.142 0-0.004 0-0.008 0-0.012l-0 0.001v-0.987h-0.176v-0.17h0.176zM22.053 14.955h0.207v0.262h-0.207zM20.784 14.955h0.207v1.081l0.575-0.569h0.244l-0.455 0.452 0.535 0.855h-0.247l-0.446-0.719-0.205 0.207v0.512h-0.207zM20.25 14.955h0.207v0.262h-0.209zM4.898 14.508c-0.052-0.002-0.112-0.004-0.173-0.004-1.031 0-1.966 0.408-2.654 1.072l0.001-0.001c-0.65 0.833-1.042 1.895-1.042 3.049 0 1.552 0.71 2.938 1.822 3.851l0.009 0.007c1.092 0.911 2.511 1.463 4.058 1.463 1.038 0 2.019-0.249 2.884-0.69l-0.036 0.017c0.393-0.823 0.622-1.79 0.622-2.809 0-1.552-0.531-2.98-1.421-4.112l0.011 0.014c-1.039-1.081-2.473-1.777-4.068-1.856l-0.014-0.001zM26.404 18.166c-0.456 1.028-1.014 1.913-1.68 2.705l0.014-0.017c-0.009 0.055-0.014 0.118-0.015 0.183v0.001c-0 0.008-0 0.017-0 0.026 0 0.191 0.066 0.366 0.177 0.505l-0.001-0.002c0.098 0.13 0.251 0.212 0.424 0.212 0 0 0 0 0.001 0h-0c0.37 0 0.892-0.33 1.567-0.983-0.001 0.050-0.004 0.1-0.004 0.151q0 0.274 0.045 0.832l0.916-0.215c0-0.25 0.004-0.446 0.012-0.592 0.018-0.245 0.047-0.466 0.088-0.683l-0.006 0.037c0.030-0.152 0.097-0.286 0.191-0.395l-0.001 0.001 0.232-0.27c0.153-0.178 0.307-0.34 0.469-0.493l0.003-0.003c0.061-0.056 0.127-0.109 0.196-0.158l0.006-0.004c0.043-0.031 0.096-0.051 0.152-0.057l0.001-0c0.069 0 0.104 0.044 0.104 0.132-0.041 0.233-0.109 0.442-0.201 0.636l0.006-0.015c-0.187 0.395-0.317 0.854-0.364 1.338l-0.001 0.017c-0.001 0.011-0.001 0.025-0.001 0.038 0 0.184 0.064 0.353 0.172 0.485l-0.001-0.001c0.104 0.119 0.256 0.194 0.425 0.194 0.008 0 0.016-0 0.023-0l-0.001 0c0.676-0.118 1.251-0.486 1.636-1.003l0.005-0.007v-0.476q-0.677 0.799-0.98 0.8c-0.136 0-0.204-0.084-0.204-0.25 0.048-0.304 0.133-0.577 0.252-0.831l-0.008 0.019c0.178-0.382 0.304-0.825 0.355-1.291l0.002-0.019c0-0.006 0-0.013 0-0.020 0-0.145-0.053-0.277-0.141-0.379l0.001 0.001c-0.083-0.097-0.206-0.159-0.343-0.159-0.003 0-0.007 0-0.010 0h0c-0.273 0.022-0.517 0.129-0.71 0.293l0.002-0.002c-0.397 0.321-0.75 0.665-1.069 1.039l-0.009 0.011c0.124-0.53 0.268-0.98 0.442-1.415l-0.023 0.065-1.011 0.195c-0.184 0.376-0.354 0.822-0.485 1.285l-0.014 0.058c-0.044 0.163-0.084 0.366-0.112 0.573l-0.003 0.027q-0.293 0.295-0.612 0.562c-0.078 0.061-0.178 0.099-0.286 0.1h-0c-0.003 0-0.007 0-0.010 0-0.084 0-0.159-0.040-0.207-0.102l-0-0.001c-0.050-0.071-0.081-0.159-0.081-0.254 0-0.008 0-0.017 0.001-0.025l-0 0.001c0.004-0.154 0.029-0.301 0.073-0.44l-0.003 0.011c0.047-0.162 0.15-0.466 0.311-0.913l0.385-1.061zM20.5 7.915c-2.774 0.136-5.245 1.335-7.032 3.196l-0.003 0.003c-3.661 3.661-2.603 10.659-1.36 11.903 1.006 1.005 8.241 2.303 11.904-1.36q0.383-0.385 0.73-0.804c0.118-0.526 0.33-0.989 0.619-1.394l-0.008 0.012c-0.194 0.101-0.42 0.178-0.657 0.218l-0.014 0.002c-0.24 0.408-0.52 0.759-0.843 1.067l-0.002 0.002c-0.29 0.288-0.6 0.557-0.927 0.803l-0.023 0.016c-0.152 0.112-0.34 0.182-0.544 0.19l-0.002 0q-0.656 0-0.617-1.155c-0.221 0.333-0.473 0.621-0.76 0.87l-0.005 0.004c-0.193 0.168-0.445 0.273-0.721 0.28l-0.001 0c-0.259-0.003-0.485-0.137-0.618-0.338l-0.002-0.003c-0.13-0.177-0.217-0.393-0.241-0.628l-0-0.005c-0.267 0.271-0.565 0.512-0.887 0.716l-0.020 0.012c-0.259 0.155-0.571 0.246-0.905 0.246-0.007 0-0.014-0-0.021-0h0.001c-0.015 0.001-0.032 0.001-0.050 0.001-0.336 0-0.64-0.138-0.858-0.361l-0-0c-0.166-0.174-0.281-0.399-0.32-0.648l-0.001-0.007v0.005c-0.292 0.28-0.615 0.532-0.962 0.749l-0.025 0.015c-0.23 0.146-0.509 0.237-0.809 0.246l-0.002 0c-0.007 0-0.015 0-0.023 0-0.281 0-0.531-0.134-0.689-0.342l-0.002-0.002c-0.171-0.235-0.274-0.53-0.274-0.848 0-0.026 0.001-0.053 0.002-0.079l-0 0.004c0.025-0.754 0.161-1.468 0.393-2.138l-0.015 0.051c0.266-0.868 0.577-1.611 0.95-2.317l-0.034 0.072 1.052-0.39c0.022-0.009 0.048-0.014 0.074-0.016l0.001-0c0.079 0 0.145 0.059 0.196 0.175 0.049 0.128 0.077 0.276 0.077 0.43 0 0.016-0 0.031-0.001 0.047l0-0.002c-0.001 0.597-0.145 1.16-0.4 1.658l0.010-0.021c-0.342 0.646-0.747 1.202-1.219 1.692l0.002-0.002q-0.034 0.431-0.034 0.592c-0.001 0.016-0.001 0.034-0.001 0.052 0 0.191 0.050 0.37 0.137 0.525l-0.003-0.005c0.069 0.126 0.201 0.211 0.352 0.211h0c0.18-0.007 0.344-0.067 0.48-0.164l-0.003 0.002c0.279-0.203 0.525-0.418 0.751-0.652l0.002-0.002c0.040-0.552 0.261-1.046 0.604-1.429l-0.002 0.002c0.312-0.417 0.797-0.69 1.346-0.711l0.003-0c0.013-0.001 0.029-0.001 0.044-0.001 0.218 0 0.417 0.076 0.575 0.202l-0.002-0.001c0.143 0.121 0.233 0.3 0.233 0.501 0 0.007-0 0.014-0 0.021l0-0.001q0 0.859-1.823 1.392c0.11 0.537 0.4 0.807 0.866 0.807 0.193-0 0.373-0.055 0.525-0.149l-0.004 0.003c0.269-0.187 0.505-0.392 0.716-0.618l0.002-0.003c0.046-0.342 0.16-0.649 0.329-0.919l-0.006 0.010c0.224-0.37 0.518-0.675 0.866-0.906l0.010-0.007c0.262-0.195 0.587-0.322 0.939-0.347l0.006-0c0.012-0.001 0.025-0.001 0.038-0.001 0.313 0 0.58 0.196 0.685 0.472l0.002 0.005 0.846-0.467h0.232l-0.365 1.213c-0.136 0.366-0.235 0.791-0.281 1.232l-0.002 0.023c0 0.237 0.084 0.356 0.252 0.356 0.141-0.013 0.265-0.076 0.356-0.171l0-0q0.195-0.172 0.546-0.525v0.001c0.171-0.185 0.332-0.387 0.478-0.599l0.012-0.018c-0.203-0.064-0.35-0.249-0.356-0.468l-0-0.001c0.010-0.255 0.090-0.489 0.221-0.686l-0.003 0.005c0.113-0.217 0.336-0.362 0.593-0.362 0.002 0 0.004 0 0.006 0h-0c0.011-0.002 0.024-0.002 0.037-0.002 0.159 0 0.289 0.129 0.289 0.289 0 0.016-0.001 0.031-0.004 0.046l0-0.002c-0.022 0.274-0.088 0.527-0.192 0.759l0.006-0.015q0.688-0.075 1.201-1.052l0.285-0.012c0.529-1.001 0.839-2.189 0.839-3.448 0-1.907-0.711-3.648-1.883-4.972l0.007 0.008c-1.18-1.142-2.789-1.845-4.563-1.845-0.107 0-0.213 0.003-0.319 0.008l0.015-0.001z"/> </g>
</svg>